<svg aria-hidden="true" style="position: absolute; width: 0; height: 0; overflow: hidden;" version="1.1"
    xmlns="http://www.w3.org/2000/svg" xmlns:xlink="http://www.w3.org/1999/xlink">
    <defs>
        <symbol id="icon-antenna-1" viewBox="0 0 32 32">
            <path fill="#212121" style="fill: var(--color1, #212121)"
                d="M30.766 22.080l-8.457-8.503 0.96-4.571c0.229 0.046 0.457 0.137 0.777 0.137 0.007 0 0.016 0 0.025 0 1.187 0 2.149-0.962 2.149-2.149s-0.962-2.149-2.149-2.149c-1.187 0-2.149 0.962-2.149 2.149 0 0.245 0.041 0.481 0.117 0.701l-0.005-0.015-4.983 0.594-8.091-8.137c-0.091-0.091-0.229-0.137-0.366-0.137s-0.274 0.046-0.366 0.137l-1.509 1.509c-0.229 0.229-0.229 0.549 0 0.777l0.823 0.777c-1.129 2.053-1.794 4.499-1.794 7.1 0 4.161 1.7 7.925 4.444 10.635l0.002 0.002-0.046 0.549v6.217h-6.4c-0.014-0-0.030-0-0.046-0-1.464 0-2.651 1.187-2.651 2.651 0 0 0 0 0 0v-0 1.051c0 0.32 0.274 0.549 0.549 0.549h24.549c0.274 0 0.503-0.229 0.503-0.549v-1.051c0-1.463-1.189-2.651-2.651-2.651h-6.4v-2.743c0.899 0.191 1.932 0.3 2.991 0.3 2.586 0 5.020-0.653 7.146-1.803l-0.080 0.039 0.869 0.823c0.091 0.091 0.229 0.137 0.366 0.137s0.274-0.046 0.366-0.137l1.509-1.509c0.229-0.229 0.229-0.549 0-0.777zM23.314 6.217c0.186-0.169 0.434-0.272 0.706-0.272 0.581 0 1.051 0.471 1.051 1.051 0 0.555-0.431 1.010-0.976 1.049l-0.003 0c-0.021 0.002-0.046 0.002-0.072 0.002-0.581 0-1.051-0.471-1.051-1.051 0-0.309 0.133-0.586 0.345-0.779l0.001-0.001zM22.080 9.737l-0.594 2.926-1.189-1.143 1.783-1.783zM21.486 8.823l-1.92 1.92-1.509-1.509 3.429-0.411zM24 28.8c0.914 0 1.6 0.731 1.6 1.6v0.549h-23.451v-0.549c0-0.914 0.686-1.6 1.6-1.6h20.251zM16.549 26.651v1.097h-5.349v-1.097h5.349zM11.2 25.6v-4.069c0-1.28 1.189-2.331 2.651-2.331 1.509 0 2.697 1.051 2.697 2.331v4.069h-5.349zM17.6 23.909v-2.423c0-1.829-1.691-3.383-3.749-3.383-1.326 0-2.56 0.64-3.246 1.783-2.369-2.481-3.827-5.85-3.827-9.559 0-2.319 0.57-4.505 1.578-6.426l-0.036 0.076 18.606 18.743c-1.816 0.94-3.965 1.492-6.242 1.492-1.093 0-2.157-0.127-3.177-0.367l0.094 0.019zM28.891 23.223l-0.731-0.823-19.566-19.657-0.823-0.686 0.777-0.777 7.909 8 13.257 13.12-0.777 0.777z">
            </path>
            <path fill="#2196f3" style="fill: var(--color2, #2196f3)"
                d="M13.897 20.251c-0.884 0-1.6 0.716-1.6 1.6s0.716 1.6 1.6 1.6v0c0.884 0 1.6-0.716 1.6-1.6s-0.716-1.6-1.6-1.6v0zM14.263 22.263c-0.101 0.112-0.247 0.183-0.409 0.183-0.303 0-0.549-0.246-0.549-0.549s0.244-0.547 0.546-0.549h0c0.001 0 0.002 0 0.003 0 0.303 0 0.549 0.246 0.549 0.549 0 0.141-0.053 0.269-0.14 0.366l0-0z">
            </path>
        </symbol>
        <symbol id="icon-astronaut-1" viewBox="0 0 32 32">
            <path fill="#2196f3" style="fill: var(--color2, #2196f3)"
                d="M31.973 4.526c-0.059-0.192-0.229-0.334-0.43-0.366l-1.911-0.274-0.855-1.737c-0.178-0.361-0.777-0.361-0.955 0l-0.85 1.737-1.911 0.274c-0.262 0.038-0.46 0.261-0.46 0.53 0 0.151 0.063 0.287 0.163 0.385l0 0 1.385 1.344-0.325 1.902c-0.005 0.026-0.007 0.056-0.007 0.087 0 0.295 0.239 0.535 0.535 0.535 0.089 0 0.174-0.022 0.248-0.061l-0.003 0.001 1.71-0.896 1.705 0.896c0.072 0.039 0.158 0.062 0.25 0.062 0.295 0 0.535-0.239 0.535-0.535 0-0.032-0.003-0.063-0.008-0.093l0 0.003-0.329-1.902 1.385-1.349c0.146-0.137 0.197-0.352 0.137-0.549zM29.513 5.851c-0.128 0.123-0.183 0.297-0.155 0.471l0.192 1.115-1.001-0.526c-0.072-0.039-0.158-0.062-0.249-0.062s-0.177 0.023-0.252 0.064l0.003-0.001-1.001 0.526 0.192-1.115c0.032-0.174-0.027-0.347-0.151-0.471l-0.814-0.791 1.12-0.16c0.174-0.027 0.325-0.137 0.402-0.293l0.503-1.015 0.498 1.015c0.078 0.155 0.229 0.265 0.402 0.293l1.12 0.16-0.809 0.791zM26.135 20.526h-1.070v1.065h1.070v-1.070zM26.135 22.656h-1.070v1.065h1.070v-1.065zM27.2 21.591h-1.065v1.065h1.065v-1.065zM25.065 21.591h-1.065v1.065h1.065v-1.065zM22.4 26.391h-1.065v1.065h1.065v-1.065zM22.4 28.526h-1.065v1.065h1.065v-1.070zM23.465 27.456h-1.065v1.065h1.065v-1.065zM21.335 27.456h-1.070v1.065h1.070v-1.065zM16 24.256h-1.065v1.065h1.065v-1.065zM16 26.391h-1.065v1.065h1.065v-1.065zM17.065 25.326h-1.065v1.065h1.065v-1.070zM14.935 25.326h-1.070v1.065h1.070v-1.070zM5.865 6.126h-1.065v1.065h1.065v-1.070zM5.865 8.256h-1.065v1.065h1.065v-1.065zM6.935 7.191h-1.070v1.065h1.070v-1.065zM4.8 7.191h-1.065v1.065h1.065v-1.065z">
            </path>
            <path fill="#212121" style="fill: var(--color1, #212121)"
                d="M24.713 14.158c-0.28-0.376-0.699-0.636-1.179-0.703l-0.009-0.001c-0.076-0.012-0.164-0.018-0.253-0.018-0.411 0-0.789 0.139-1.090 0.373l0.004-0.003-1.248 0.96-1.902 1.417-1.358-0.539c2.423-1.088 4.114-3.506 4.114-6.322 0-3.822-3.122-6.93-6.962-6.93s-6.958 3.109-6.958 6.93c0 1.39 0.411 2.674 1.12 3.762l-2.77-0.027-0.023 0.005c-0.055 0-0.105 0.014-0.155 0.032l-0.037 0.014-0.023 0.005-3.232 1.6-1.893 0.91c-0.506 0.32-0.837 0.877-0.837 1.511 0 0.985 0.798 1.783 1.783 1.783 0.303 0 0.588-0.075 0.838-0.209l-0.010 0.005 1.385-0.736 2.263-1.17 1.358-0.009-6.779 6.757c-0.306 0.299-0.496 0.716-0.496 1.177s0.19 0.878 0.495 1.177l0 0c0.302 0.302 0.719 0.488 1.179 0.488s0.878-0.187 1.179-0.488v0l1.307-1.312 1.742-1.298 0.901 0.896-1.76 1.755-1.339 1.33c-0.307 0.299-0.498 0.717-0.498 1.179s0.191 0.88 0.498 1.179l0 0c0.302 0.302 0.719 0.488 1.179 0.488s0.878-0.187 1.179-0.488v0l3.483-3.47 1.015-1.006h-0.005l0.018-0.018 5.166-5.659 3.474 0.498c0.019 0.003 0.041 0.004 0.063 0.004 0.071 0 0.139-0.015 0.201-0.042l-0.003 0.001 0.050-0.023c0.018-0.009 0.041-0.014 0.059-0.027l3.214-2.13 0.027-0.032 0.041-0.023 1.271-1.193c0.347-0.326 0.562-0.788 0.562-1.3 0-0.401-0.132-0.771-0.355-1.068l0.003 0.005zM2.13 17.769c-0.109 0.071-0.243 0.113-0.386 0.113-0.396 0-0.716-0.321-0.716-0.716 0-0.252 0.13-0.474 0.327-0.602l0.003-0.002 1.317-0.631 0.315 0.923 0.133 0.389-0.992 0.526zM5.627 15.941l-1.55 0.8-0.256-0.741-0.183-0.535 2.030-1.006-0.041 1.486zM20.727 9.326c0 0.919-0.219 1.783-0.599 2.56l-4.183-1.897c-0.042-0.576-0.341-1.074-0.78-1.386l-0.006-0.004 1.463-4.859c2.377 0.754 4.105 2.971 4.105 5.586zM8.937 9.326c0.011-3.243 2.643-5.868 5.888-5.868 0.266 0 0.528 0.018 0.784 0.052l-0.030-0.003-1.435 4.754-0.055-0.005c0 0 0 0-0 0-1.032 0-1.869 0.834-1.874 1.865v0.001c0.012 1.026 0.847 1.852 1.874 1.852 0.687 0 1.287-0.369 1.614-0.92l0.005-0.009 3.858 1.755c-1.085 1.458-2.804 2.393-4.741 2.393-3.245 0-5.878-2.624-5.893-5.866v-0.001zM14.894 10.126c0 0.446-0.361 0.807-0.807 0.807s-0.807-0.361-0.807-0.807v0c0-0.439 0.366-0.8 0.809-0.8s0.805 0.361 0.805 0.8zM2.469 25.147c-0.233 0.233-0.617 0.229-0.855 0-0.109-0.108-0.177-0.257-0.177-0.423s0.068-0.315 0.177-0.423l0.96-0.96 0.855 0.85-0.965 0.951zM5.682 28.878c-0.233 0.238-0.617 0.238-0.855 0-0.108-0.108-0.174-0.256-0.174-0.421s0.067-0.313 0.174-0.421v0l0.96-0.96 0.855 0.846-0.96 0.96zM9.166 25.413l-1.769 1.76-0.85-0.85 1.765-1.751c0.041-0.046 0.064-0.091 0.091-0.137l0.023-0.046c0.018-0.037 0.023-0.082 0.027-0.123 0-0.027 0.014-0.046 0.014-0.073 0-0.037-0.014-0.073-0.018-0.105l-0.018-0.096c-0.023-0.050-0.055-0.091-0.091-0.137l-0.027-0.041-1.609-1.6c-0.014-0.018-0.037-0.023-0.055-0.037-0.032-0.023-0.059-0.046-0.091-0.059-0.026-0.012-0.056-0.023-0.088-0.031l-0.003-0.001c-0.029-0.010-0.063-0.018-0.098-0.023l-0.003-0c-0.032 0-0.064 0-0.096 0.009-0.037 0-0.069 0.009-0.105 0.018-0.032 0.009-0.064 0.027-0.091 0.046-0.023 0.009-0.046 0.014-0.064 0.027l-1.774 1.326-0.901-0.901 2.4-2.386 4.361 4.293-0.928 0.914zM15.982 18.395h-0.046c-0.007-0-0.016-0.001-0.025-0.001-0.137 0-0.262 0.052-0.355 0.138l0-0-0.041 0.032-4.699 5.143-4.325-4.251 2.834-2.821c0.098-0.097 0.158-0.231 0.158-0.379 0-0.295-0.239-0.535-0.535-0.535-0.002 0-0.005 0-0.007 0h0l-2.217 0.014 0.027-1.609 3.104 0.027c1.263 1.296 3.026 2.099 4.977 2.099 0.455 0 0.899-0.044 1.33-0.127l-0.044 0.007c0.037 0.032 0.078 0.064 0.128 0.087l2.409 0.96 0.151 0.759 0.183 0.882-3.008-0.425zM20.023 18.574l-0.311-1.559 1.445-1.079 0.379 0.503 0.567 0.75-2.080 1.385zM23.781 15.739l-0.841 0.786-0.928-1.234 0.827-0.64c0.122-0.093 0.276-0.149 0.443-0.149 0.037 0 0.074 0.003 0.11 0.008l-0.004-0.001c0.352 0.050 0.62 0.349 0.62 0.711 0 0.206-0.087 0.392-0.226 0.523l-0 0z">
            </path>
            <path fill="#212121" style="fill: var(--color1, #212121)"
                d="M13.6 18.546l-2.139-2.135c-0.097-0.096-0.23-0.156-0.377-0.156s-0.28 0.059-0.377 0.156l0-0-2.144 2.135c-0.096 0.097-0.156 0.23-0.156 0.377s0.059 0.28 0.156 0.377l-0-0 2.144 2.135c0.097 0.096 0.23 0.156 0.377 0.156s0.28-0.059 0.377-0.156l-0 0 2.139-2.135c0.096-0.097 0.156-0.23 0.156-0.377s-0.059-0.28-0.156-0.377l0 0zM11.086 20.302l-1.394-1.376 1.385-1.381 1.39 1.381-1.39 1.381zM17.166 5.074l-0.261 1.033c0.073 0.018 1.737 0.453 1.737 2.149h1.070c0-2.016-1.669-2.967-2.546-3.186zM19.712 9.326h-1.070v1.065h1.070v-1.070z">
            </path>
        </symbol>
        <symbol id="icon-clock-1" viewBox="0 0 32 32">
            <path fill="#212121" style="fill: var(--color1, #212121)"
                d="M31.296 15.301c-0.001-8.452-6.853-15.303-15.305-15.303s-15.305 6.852-15.305 15.305c0 6.79 4.422 12.548 10.543 14.55l0.108 0.031c0.057 0.017 0.123 0.027 0.191 0.027 0.125 0 0.242-0.034 0.343-0.093l-0.003 0.002c0.137-0.082 0.233-0.206 0.283-0.357l3.863-12.251c1.048-0.009 1.895-0.861 1.895-1.911 0-1.055-0.856-1.911-1.911-1.911-0.3 0-0.584 0.069-0.836 0.192l0.011-0.005-5.102-5.106c-0.112-0.098-0.259-0.158-0.421-0.158-0.353 0-0.64 0.287-0.64 0.64 0 0.16 0.059 0.307 0.156 0.419l-0.001-0.001 5.106 5.111c-0.121 0.241-0.192 0.526-0.192 0.826 0 0.601 0.283 1.136 0.723 1.479l0.004 0.003-3.685 11.671c-5.408-2.035-9.186-7.165-9.186-13.177 0-7.756 6.287-14.043 14.043-14.043s14.043 6.287 14.043 14.043c0 5.688-3.381 10.586-8.243 12.793l-0.088 0.036-0.398-1.874c-0.066-0.289-0.32-0.502-0.625-0.502-0.162 0-0.31 0.060-0.423 0.159l0.001-0.001-3.84 3.429c-0.127 0.117-0.207 0.285-0.207 0.471 0 0.282 0.182 0.521 0.435 0.607l0.005 0.001 4.901 1.563c0.057 0.019 0.123 0.029 0.192 0.029 0.353 0 0.64-0.287 0.64-0.64 0-0.046-0.005-0.091-0.014-0.134l0.001 0.004-0.393-1.838c5.529-2.374 9.33-7.772 9.33-14.057 0-0.011 0-0.022-0-0.034v0.002zM15.991 14.661c0.353 0 0.64 0.287 0.64 0.64s-0.287 0.64-0.64 0.64v0c-0.353 0-0.64-0.287-0.64-0.64s0.287-0.64 0.64-0.64v0zM18.094 29.527l2.185-1.947 0.599 2.839-2.789-0.891z">
            </path>
            <path
                d="M15.355 3.186v1.275c-0.001 0.016-0.002 0.035-0.002 0.054 0 0.353 0.287 0.64 0.64 0.64s0.64-0.287 0.64-0.64c0-0.019-0.001-0.038-0.002-0.056l0 0.002v-1.28c0-0.353-0.287-0.64-0.64-0.64s-0.64 0.287-0.64 0.64v0zM3.877 14.665c-0.329 0.029-0.586 0.303-0.586 0.638s0.257 0.609 0.584 0.638l0.002 0h1.275c0.353 0 0.64-0.287 0.64-0.64s-0.287-0.64-0.64-0.64h-1.28zM28.11 15.941c0.353 0 0.64-0.287 0.64-0.64s-0.287-0.64-0.64-0.64h-1.28c-0.353 0-0.64 0.287-0.64 0.64s0.287 0.64 0.64 0.64h1.28z">
            </path>
        </symbol>
        <symbol id="icon-envelope" viewBox="0 0 43 32">
            <path fill="#757575" style="fill: var(--color1, #757575)"
                d="M38.667 0h-34.667c-2.133 0-4 1.867-4 4v24c0 2.133 1.867 4 4 4h34.667c2.133 0 4-1.867 4-4v-24c0-2.133-1.867-4-4-4zM38.667 2.667h0.533l-17.867 15.467-17.867-15.467h35.2zM38.667 29.333h-34.667c-0.736 0-1.333-0.597-1.333-1.333v0-22.4l17.867 15.467c0.22 0.166 0.498 0.267 0.8 0.267s0.58-0.1 0.803-0.269l-0.003 0.002 17.867-15.733v22.4c0 0.8-0.533 1.333-1.333 1.333z">
            </path>
        </symbol>
        <symbol id="icon-smartphone" viewBox="0 0 20 32">
            <path fill="#757575" style="fill: var(--color1, #757575)"
                d="M17 0h-14c-1.654 0-3 1.346-3 3v26c0 1.654 1.346 3 3 3h14c1.654 0 3-1.346 3-3v-26c0-1.654-1.346-3-3-3zM3 2h14c0.552 0 1 0.448 1 1v21h-16v-21c0-0.552 0.448-1 1-1zM17 30h-14c-0.552 0-1-0.448-1-1v-3h16v3c0 0.552-0.448 1-1 1z">
            </path>
            <path fill="#757575" style="fill: var(--color1, #757575)"
                d="M4.707 27.478c0.391 0.365 0.391 0.956 0 1.32s-1.024 0.364-1.414 0c-0.391-0.365-0.391-0.956 0-1.32s1.024-0.365 1.414 0z">
            </path>
        </symbol>
        <symbol id="icon-Group" viewBox="0 0 36 32">
            <path fill="#afb1b8" style="fill: var(--color4, #afb1b8)"
                d="M35.556 4.978c-1.244 0.533-2.667 0.889-4.267 1.067 1.497-0.872 2.628-2.233 3.185-3.861l0.015-0.050c-1.422 0.889-2.844 1.422-4.622 1.778-1.335-1.431-3.231-2.324-5.336-2.324-4.026 0-7.289 3.263-7.289 7.289 0 0.572 0.066 1.128 0.19 1.662l-0.010-0.049c-6.044-0.356-11.378-3.2-14.933-7.644-0.625 1.053-0.994 2.32-0.994 3.674 0 2.544 1.303 4.783 3.278 6.087l0.027 0.017c-1.241-0.012-2.404-0.34-3.413-0.907l0.036 0.018c0 3.556 2.489 6.578 5.867 7.111-0.614 0.192-1.32 0.302-2.052 0.302-0.469 0-0.927-0.045-1.371-0.132l0.045 0.007c1.067 3.022 3.556 5.156 6.933 5.156-2.458 1.954-5.607 3.135-9.032 3.135-0.639 0-1.268-0.041-1.885-0.121l0.073 0.008c3.2 2.133 7.111 3.022 11.2 3.022 0.004 0 0.008 0 0.012 0 11.389 0 20.622-9.233 20.622-20.622 0-0.25-0.004-0.499-0.013-0.747l0.001 0.036c1.6-1.067 2.667-2.311 3.733-3.733z">
            </path>
        </symbol>
        <symbol id="icon-Vector-1" viewBox="0 0 41 32">
            <path
                d="M2.074 31.941h33.185c1.126 0 2.074-0.948 2.074-2.074v-2.785c0-1.185-0.948-2.074-2.074-2.074h-0.711v-17.185l3.911-3.733c0.276 0.145 0.603 0.23 0.95 0.23 1.145 0 2.074-0.929 2.074-2.074s-0.929-2.074-2.074-2.074c-1.145 0-2.074 0.929-2.074 2.074 0 0.303 0.065 0.59 0.181 0.85l-0.005-0.013-2.963 2.785v-1.6c0-1.126-0.948-2.074-2.074-2.074h-27.615c-1.185 0-2.074 0.948-2.074 2.074v20.741h-0.711c-1.185 0-2.074 0.948-2.074 2.074v2.785c0 1.185 0.948 2.074 2.074 2.074zM39.407 1.541c0.061-0.019 0.131-0.030 0.203-0.030 0.393 0 0.711 0.318 0.711 0.711s-0.318 0.711-0.711 0.711c-0.072 0-0.142-0.011-0.208-0.031l0.005 0.001c-0.296-0.090-0.508-0.361-0.508-0.681s0.212-0.591 0.503-0.68l0.005-0.001zM4.148 4.267c0-0.356 0.296-0.652 0.711-0.652h27.615c0.356 0 0.711 0.296 0.711 0.652v2.963l-1.422 1.304v-2.844c0-0.415-0.296-0.711-0.652-0.711h-24.889c-0.356 0-0.711 0.296-0.711 0.711v17.244c0 0.415 0.356 0.711 0.711 0.711h24.889c0.356 0 0.652-0.296 0.652-0.711v-12.504l1.422-1.304v15.881h-29.037v-20.741zM10.37 13.274c-0.009-0-0.019-0-0.029-0-1.145 0-2.074 0.929-2.074 2.074s0.929 2.074 2.074 2.074c0.565 0 1.078-0.226 1.452-0.593l-0 0 2.37 1.185c0.296 0.178 0.652 0.119 0.889-0.119l5.096-5.748 4.978 3.733c0.296 0.237 0.652 0.178 0.889 0l4.385-4.148v10.548h-23.467v-15.941h23.467v3.496l-4.859 4.622-5.096-3.793c-0.296-0.237-0.711-0.178-0.948 0.059l-5.156 5.867-1.896-1.007v-0.178c0-1.185-0.889-2.074-2.015-2.074zM11.081 15.348c0 0.393-0.318 0.711-0.711 0.711s-0.711-0.318-0.711-0.711v0c0-0.393 0.318-0.711 0.711-0.711s0.711 0.318 0.711 0.711v0zM15.23 26.43h6.874v0.652c0 0.415-0.296 0.711-0.711 0.711h-5.511c-0.356 0-0.652-0.296-0.652-0.711v-0.652zM1.363 27.081c0-0.356 0.356-0.652 0.711-0.652h11.733v0.652c0 1.185 0.948 2.074 2.074 2.074h5.511c1.185 0 2.074-0.889 2.074-2.074v-0.652h11.793c0.356 0 0.652 0.296 0.652 0.652v2.785c0 0.356-0.296 0.711-0.652 0.711h-33.185c-0.356 0-0.711-0.356-0.711-0.711v-2.785z">
            </path>
        </symbol>
        <symbol id="icon-Vector-2" viewBox="0 0 18 32">
            <path fill="#afb1b8" style="fill: var(--color4, #afb1b8)"
                d="M13.28 5.28h3.040v-5.12l-4.32-0.16c-4.16 0-7.040 2.72-7.040 7.52v4.48h-4.96v5.76h4.8v14.24h5.6v-14.4h4.48l0.8-5.6h-5.12v-3.84c0-1.6 0.48-2.88 2.72-2.88z">
            </path>
        </symbol>
        <symbol id="icon-Vector" viewBox="0 0 20 32">
            <path fill="#757575" style="fill: var(--color5, #757575)"
                d="M17 0h-14c-1.6 0-3 1.4-3 3v26c0 1.6 1.4 3 3 3h14c1.6 0 3-1.4 3-3v-26c0-1.6-1.4-3-3-3zM3 2h14c0.6 0 1 0.4 1 1v21h-16v-21c0-0.6 0.4-1 1-1zM17 30h-14c-0.552 0-1-0.448-1-1v0-3h16v3c0 0.6-0.4 1-1 1z">
            </path>
        </symbol>
        <symbol id="icon-Logo-1" viewBox="0 0 57 32">
            <path
                d="M20.267 3.733l3.733 3.52h-6.933v17.173h18.133v-6.56l3.733 3.52v-17.653h-18.667zM35.040 17.44l-10.613-9.973h10.613v10.027zM31.733 21.92h-11.787v-11.52h0.8v10.72h10.987v0.8zM22.72 26.72l-0.427 0.907-0.427-0.96h-0.373l0.64 1.173v0.747h0.32v-0.747l0.64-1.173h-0.373zM23.253 28.64l0.16-0.48h0.747l0.16 0.48h0.32l-0.64-1.973h-0.32l-0.747 1.973h0.32zM23.787 27.147l0.267 0.747h-0.533l0.267-0.747zM25.547 27.84l-0.107 0.267c0 0.16 0.053 0.267 0.213 0.373 0.107 0.107 0.213 0.16 0.427 0.16 0.16 0 0.32 0 0.48-0.16l0.107 0.16h0.373l-0.267-0.373c0.107-0.107 0.16-0.32 0.16-0.533h-0.267c0 0.107 0 0.213-0.107 0.32l-0.373-0.427 0.16-0.107 0.16-0.16c0.044-0.066 0.070-0.147 0.070-0.234 0-0.117-0.047-0.223-0.123-0.3l0 0c-0.082-0.067-0.187-0.107-0.302-0.107-0.006 0-0.013 0-0.019 0l0.001-0c-0.015-0.002-0.033-0.002-0.050-0.002-0.122 0-0.235 0.041-0.324 0.11l0.001-0.001c-0.107 0.107-0.16 0.213-0.16 0.373l0.053 0.16 0.16 0.267c-0.103 0.059-0.191 0.13-0.266 0.212l-0.001 0.001zM26.4 28.267c-0.088 0.067-0.199 0.107-0.32 0.107v0l-0.213-0.053c-0.065-0.049-0.107-0.126-0.107-0.213v0c0-0.107 0.053-0.213 0.16-0.267h0.053l0.427 0.427zM26.027 27.467l-0.107-0.32v-0.16h0.373l0.053 0.16-0.053 0.16-0.213 0.16zM29.12 28.48c0.16-0.107 0.213-0.267 0.213-0.48h-0.32c0 0.16 0 0.213-0.107 0.267-0.053 0.107-0.16 0.107-0.32 0.107-0.004 0-0.009 0-0.013 0-0.126 0-0.238-0.063-0.306-0.159l-0.001-0.001-0.107-0.48v-0.16c0-0.213 0.053-0.373 0.16-0.48 0.053-0.107 0.16-0.107 0.32-0.107l0.267 0.053 0.107 0.32h0.32c0-0.213-0.053-0.373-0.213-0.533l-0.533-0.107c-0.107 0-0.267 0-0.373 0.107l-0.267 0.267c-0.069 0.137-0.109 0.298-0.109 0.469 0 0.023 0.001 0.045 0.002 0.067l-0-0.003v0.16c0 0.16 0 0.32 0.107 0.427 0.053 0.16 0.16 0.267 0.267 0.32l0.373 0.107c0.267 0 0.427-0.053 0.533-0.16zM31.093 28.213l0.053-0.533v-0.053c0-0.213 0-0.373-0.107-0.533-0.13-0.223-0.368-0.371-0.64-0.373h-0c-0.16 0-0.32 0-0.427 0.107-0.107 0.053-0.213 0.16-0.267 0.32-0.107 0.107-0.107 0.267-0.107 0.48v0.107c0 0.16 0 0.32 0.107 0.48 0 0.16 0.16 0.267 0.267 0.32l0.427 0.107c0.16 0 0.267 0 0.373-0.107 0.16-0.053 0.213-0.213 0.32-0.32zM30.72 27.147l0.107 0.48v0.107c0 0.213 0 0.373-0.107 0.48l-0.32 0.16c-0.019 0.003-0.041 0.005-0.063 0.005-0.129 0-0.242-0.065-0.309-0.164l-0.001-0.001-0.107-0.533v-0.053c0-0.213 0-0.373 0.107-0.533l0.373-0.107c0.107 0 0.213 0 0.32 0.16z">
            </path>
        </symbol>
        <symbol id="icon-Logo-2" viewBox="0 0 57 32">
            <path
                d="M19.413 26.187l0.16 0.107-0.32 0.213-0.48 0.107c-0.16 0-0.267 0-0.427-0.107l-0.32-0.16-0.213-0.32c-0.049-0.118-0.078-0.256-0.078-0.4s0.029-0.282 0.080-0.407l-0.003 0.007 0.213-0.32c0.107-0.053 0.213-0.16 0.373-0.16 0.127-0.043 0.274-0.067 0.427-0.067s0.299 0.025 0.436 0.070l-0.010-0.003 0.32 0.16-0.107 0.107h-0.16l-0.053-0.053c-0.119-0.067-0.262-0.107-0.413-0.107-0.005 0-0.009 0-0.014 0h0.001l-0.32 0.053-0.267 0.16c0 0.107-0.107 0.16-0.16 0.267v0.64l0.16 0.213 0.267 0.16h0.48c0.144-0.016 0.272-0.074 0.374-0.161l-0.001 0.001h0.053zM22.773 25.6l-0.053 0.427-0.267 0.32-0.32 0.16c-0.267 0.107-0.587 0.107-0.907 0-0.122-0.038-0.229-0.092-0.323-0.162l0.003 0.002-0.213-0.32c-0.049-0.118-0.078-0.256-0.078-0.4s0.029-0.282 0.080-0.407l-0.003 0.007c0-0.107 0.107-0.213 0.213-0.32l0.32-0.16c0.32-0.107 0.64-0.107 0.907 0l0.32 0.16c0.197 0.167 0.322 0.416 0.322 0.693 0 0.019-0.001 0.038-0.002 0.057l0-0.003zM22.453 25.6v-0.267c-0.064-0.205-0.222-0.363-0.422-0.425l-0.005-0.001c-0.096-0.031-0.206-0.049-0.32-0.049s-0.224 0.018-0.328 0.051l0.008-0.002-0.267 0.16-0.16 0.267v0.587c0.064 0.205 0.222 0.363 0.422 0.425l0.005 0.001h0.64l0.213-0.16c0.107-0.053 0.16-0.16 0.16-0.267l0.053-0.267zM25.067 25.973v0.053l0.053-0.053v-0.107l0.8-1.173h0.373v1.867h-0.267v-1.493l-0.747 1.173-0.107 0.053h-0.107l-0.907-1.227v1.547h-0.267v-1.867h0.32l0.747 1.173 0.053 0.107zM27.84 25.867v0.693h-0.267v-1.867h1.013c0.107 0 0.16 0.107 0.267 0.16l0.107 0.16 0.053 0.267v0.213l-0.213 0.213-0.213 0.107-0.373 0.053h-0.373zM27.84 25.653h0.587l0.16-0.107 0.107-0.107v-0.373c0-0.053 0-0.107-0.107-0.16l-0.373-0.107h-0.373v0.8zM31.787 26.56h-0.32l-0.213-0.533h-1.013l-0.213 0.533h-0.32l0.853-1.867h0.32l0.907 1.867zM30.347 25.867h0.8l-0.32-0.747-0.107-0.213v0.213l-0.373 0.747zM33.067 24.693l1.28 1.44v-1.44h0.267v1.867h-0.213l-1.333-1.493v1.44h-0.267v-1.867h0.213zM36.747 25.813v0.747h-0.267v-0.747l-0.8-1.12h0.32l0.533 0.8c0.019 0.044 0.037 0.097 0.051 0.152l0.002 0.008 0.053-0.107 0.053-0.053 0.533-0.747v-0.053h0.32l-0.747 1.12zM24.907 21.493h0.427c1.934-0.748 3.542-1.978 4.727-3.546l0.019-0.027c1.173-1.6 1.76-3.413 1.707-5.333l-2.133-1.813c0.131 0.595 0.206 1.278 0.206 1.979 0 1.428-0.312 2.783-0.871 4.001l0.025-0.060c-0.908 1.992-2.315 3.621-4.065 4.774l-0.042 0.026z">
            </path>
            <path
                d="M24.16 21.333v0.053c2.027-1.227 3.52-2.933 4.373-4.907s0.96-4.16 0.373-6.187l-3.040-2.667c0.962 1.642 1.53 3.616 1.53 5.722 0 3.105-1.234 5.922-3.239 7.987l0.003-0.003zM34.613 14.827c-0.585 2.2-1.871 4.040-3.6 5.315l-0.026 0.019-1.76 1.067c1.558-0.405 2.916-1.105 4.073-2.042l-0.020 0.016c1.067-0.907 2.027-2.027 2.56-3.253l-1.227-1.067z">
            </path>
            <path
                d="M34.133 14.56l-1.813-1.6c0 1.813-0.587 3.52-1.653 5.013s-2.56 2.72-4.373 3.573l1.227-0.053c1.653-0.587 3.147-1.6 4.267-2.773 1.087-1.123 1.888-2.529 2.28-4.098l0.013-0.062zM24.427 6.507l-2.133-1.867c-1.896 0.618-3.489 1.729-4.679 3.182l-0.014 0.018c-1.087 1.346-1.749 3.075-1.76 4.957v0.003c0 1.973 0.747 3.84 2.133 5.333 1.387 1.6 3.36 2.667 5.493 3.2 1.996-2.037 3.228-4.83 3.228-7.91 0-2.593-0.873-4.982-2.341-6.89l0.020 0.027zM38.987 14.24c0-2.293-1.067-4.533-2.933-6.133-1.898-1.63-4.386-2.623-7.105-2.623-1.276 0-2.5 0.218-3.638 0.62l0.077-0.024 12.96 11.307c0.427-1.013 0.64-2.080 0.64-3.147z">
            </path>
        </symbol>
        <symbol id="icon-Logo-3" viewBox="0 0 57 32">
            <path
                d="M12.853 11.253c-1.28 0-2.293 0.907-2.293 2.080 0 1.12 1.067 2.027 2.293 2.027 1.28 0 2.347-0.907 2.347-2.027 0-1.173-1.067-2.080-2.347-2.080zM29.973 10.613c0-1.6-0.693-3.093-1.973-4.267-1.227-1.067-2.933-1.707-4.747-1.707-1.76 0-3.467 0.64-4.747 1.76-1.227 1.067-1.92 2.667-1.92 4.213v8.693s13.333-1.333 13.333-8.693zM5.867 22.133c0 1.12 0.533 2.133 1.387 2.933 0.867 0.755 2.005 1.218 3.252 1.227h0.002c1.28 0 2.453-0.427 3.307-1.227 0.821-0.702 1.349-1.726 1.386-2.874l0-0.006v-6.080s-9.333 0.907-9.333 6.027zM10.507 23.2c-0.213 0-0.48 0-0.64-0.16-0.213-0.107-0.373-0.267-0.48-0.48-0.053-0.16-0.107-0.427-0.053-0.587 0-0.213 0.16-0.427 0.32-0.533 0.16-0.213 0.427-0.32 0.64-0.32h0.693c0.213 0.107 0.427 0.267 0.533 0.427 0.14 0.172 0.225 0.395 0.225 0.637 0 0.297-0.128 0.564-0.331 0.749l-0.001 0.001-0.427 0.213-0.48 0.107zM19.947 22.667h-0.907v0.907h-0.373v-2.24h1.44v0.427h-1.013v0.533h0.907v0.427zM22.187 22.507c0 0.213 0 0.427-0.107 0.533-0.146 0.317-0.461 0.534-0.826 0.534-0.009 0-0.019-0-0.028-0l0.001 0c-0.16 0-0.32 0-0.533-0.107l-0.32-0.373-0.107-0.587v-0.107c0-0.213 0-0.427 0.107-0.587 0.146-0.317 0.461-0.534 0.826-0.534 0.009 0 0.019 0 0.028 0l-0.001-0c0.213 0 0.373 0 0.533 0.107 0.107 0.107 0.267 0.267 0.32 0.427 0.107 0.16 0.107 0.373 0.107 0.533v0.16zM21.76 22.4c0-0.267-0.053-0.427-0.16-0.533-0.075-0.128-0.212-0.213-0.369-0.213-0.001 0-0.003 0-0.004 0h0c-0.16 0-0.267 0.053-0.373 0.213l-0.107 0.533v0.107c0 0.213 0 0.373 0.107 0.533 0.107 0.107 0.213 0.16 0.373 0.16s0.32 0 0.373-0.16c0.107-0.107 0.107-0.32 0.16-0.533v-0.107zM23.733 22.933s0-0.107-0.107-0.16l-0.32-0.16c-0.16 0-0.32-0.107-0.373-0.16-0.267-0.107-0.427-0.32-0.427-0.533l0.107-0.32c0.107-0.107 0.16-0.213 0.32-0.267l0.427-0.053 0.427 0.053 0.32 0.267 0.107 0.373h-0.48c0-0.107 0-0.16-0.107-0.267-0.061-0.036-0.134-0.057-0.213-0.057-0.019 0-0.038 0.001-0.056 0.004l0.002-0-0.267 0.053-0.107 0.213c0 0.053 0 0.107 0.107 0.16l0.32 0.16c0.267 0.053 0.48 0.16 0.587 0.267 0.16 0.16 0.213 0.267 0.213 0.48s-0.107 0.32-0.213 0.48c-0.16 0.107-0.373 0.16-0.64 0.16-0.16 0-0.32 0-0.48-0.107l-0.32-0.267-0.107-0.373h0.48c0 0.213 0.16 0.373 0.427 0.373 0.107 0 0.213 0 0.267-0.107l0.107-0.16zM26.24 21.707h-0.693v1.867h-0.48v-1.867h-0.693v-0.427h1.867v0.427zM27.84 22.613h-0.853v0.587h1.067v0.373h-1.6v-2.24h1.6v0.427h-1.067v0.533h0.907v0.373zM29.12 22.72h-0.32v0.853h-0.427v-2.24h0.8c0.32 0 0.533 0.107 0.64 0.213 0.16 0.107 0.213 0.267 0.213 0.533 0 0.107 0 0.267-0.107 0.373 0 0.107-0.16 0.16-0.267 0.213l0.48 0.96h-0.533l-0.427-0.853zM28.8 22.4h0.427l0.267-0.053 0.053-0.267-0.053-0.267-0.32-0.053h-0.373v0.64zM31.68 22.827v0.8h-0.533v-2.293h0.96l0.427 0.107 0.32 0.267 0.107 0.427c0 0.213-0.107 0.373-0.267 0.533-0.16 0.107-0.373 0.16-0.64 0.16h-0.373zM31.68 22.453h0.427c0.107 0 0.213 0 0.267-0.107l0.107-0.213c0-0.107 0-0.213-0.107-0.267-0.067-0.066-0.16-0.107-0.261-0.107-0.002 0-0.004 0-0.006 0h-0.426v0.64zM34.613 22.667h-0.907v0.587h1.067v0.373h-1.493v-2.293h1.387v0.427h-1.067v0.533h0.907v0.373zM36.8 21.76h-0.693v1.867h-0.48v-1.867h-0.693v-0.427h1.867v0.427zM38.4 22.667h-0.853v0.587h1.067v0.373h-1.547v-2.293h1.547v0.427h-1.067v0.533h0.853v0.373zM39.733 22.773h-0.373v0.853h-0.533v-2.293h0.907c0.267 0 0.48 0.107 0.587 0.213 0.16 0.107 0.213 0.267 0.213 0.533l-0.053 0.373-0.32 0.213 0.533 0.96h-0.533l-0.427-0.853zM39.36 22.4h0.373l0.267-0.053 0.107-0.267c0-0.107 0-0.213-0.107-0.267l-0.267-0.053h-0.373v0.64zM42.080 23.040l-0.053-0.213-0.373-0.16c-0.16 0-0.267-0.107-0.373-0.16-0.267-0.107-0.373-0.32-0.373-0.533 0-0.16 0-0.267 0.107-0.32 0-0.107 0.16-0.213 0.267-0.267l0.427-0.053 0.48 0.053 0.267 0.267 0.107 0.373h-0.48c0-0.107 0-0.16-0.107-0.267-0.061-0.036-0.134-0.057-0.213-0.057-0.019 0-0.038 0.001-0.056 0.004l0.002-0-0.267 0.053-0.107 0.213 0.16 0.16 0.32 0.16c0.267 0.053 0.427 0.16 0.533 0.267 0.16 0.16 0.213 0.267 0.213 0.48s-0.053 0.32-0.213 0.48c-0.16 0.107-0.373 0.16-0.587 0.16s-0.373 0-0.533-0.107l-0.32-0.267-0.107-0.373h0.533c0 0.213 0.107 0.373 0.427 0.373 0.107 0 0.16 0 0.267-0.107l0.053-0.16z">
            </path>
        </symbol>
        <symbol id="icon-Logo-4" viewBox="0 0 57 32">
            <path
                d="M14.293 23.84c0.107 0.16 0.16 0.373 0.16 0.533l-0.053 0.373-0.213 0.267c-0.267 0.213-0.587 0.267-0.907 0.267h-1.547v-3.307h1.493c0.32 0 0.64 0.053 0.853 0.213l0.213 0.267 0.107 0.373c0 0.16-0.053 0.373-0.213 0.533l-0.427 0.213c0.213 0 0.373 0.16 0.533 0.267zM12.48 23.36h0.64c0.107 0 0.267 0 0.373-0.107l0.107-0.16 0.053-0.16v-0.16l-0.16-0.16c-0.107-0.107-0.267-0.107-0.427-0.107h-0.587v0.853zM13.547 24.64l0.16-0.16v-0.373l-0.107-0.16c-0.16-0.107-0.32-0.107-0.48-0.107h-0.64v0.907h0.64c0.16 0 0.32 0 0.48-0.107zM17.387 25.28l-0.853-1.28h-0.32v1.28h-0.747v-3.307h1.387c0.373 0 0.693 0.107 0.96 0.267 0.213 0.213 0.32 0.427 0.32 0.693s-0.053 0.533-0.213 0.693c-0.16 0.16-0.427 0.267-0.64 0.32l0.907 1.333h-0.8zM16.213 23.52h0.587c0.427 0 0.64-0.16 0.64-0.48l-0.053-0.213c-0.027-0.062-0.063-0.115-0.107-0.16l0 0-0.48-0.16h-0.587v1.067zM21.333 24.64h-1.44l-0.267 0.64h-0.747l1.333-3.253h0.8l1.333 3.253h-0.747l-0.267-0.64zM21.12 24.107l-0.533-1.387-0.533 1.387h1.067zM26.293 25.28h-0.693l-1.6-2.24v2.24h-0.747v-3.307h0.693l1.6 2.24v-2.24h0.747v3.307zM30.4 24.533c-0.107 0.213-0.373 0.427-0.64 0.533-0.273 0.136-0.593 0.215-0.933 0.215-0.028 0-0.056-0.001-0.084-0.002l0.004 0h-1.28v-3.307h1.333c0.373 0 0.693 0.053 1.067 0.213 0.213 0.107 0.48 0.32 0.587 0.533 0.143 0.254 0.228 0.557 0.228 0.88s-0.084 0.626-0.233 0.889l0.005-0.009zM29.6 24.427c0.195-0.209 0.315-0.491 0.315-0.8s-0.12-0.591-0.316-0.801l0.001 0.001c-0.189-0.175-0.444-0.283-0.723-0.283-0.065 0-0.128 0.006-0.19 0.017l0.006-0.001h-0.533v2.133h0.533c0.32 0 0.64-0.107 0.907-0.267zM21.813 3.627s9.28 3.2 9.067 7.84v7.893s-9.28-3.2-9.067-7.893v-7.84zM39.2 17.493c1.76-1.067 3.733-1.76 5.867-1.973v-2.453c-2.425 0.857-4.431 2.398-5.842 4.389l-0.025 0.037z">
            </path>
            <path
                d="M38.133 18.24c1.44-2.667 3.947-4.693 6.933-5.707v-7.093s-13.227 4.587-12.96 11.2v11.2l1.547-0.587v-1.067c0.32-3.093 1.92-5.92 4.48-7.947z">
            </path>
            <path
                d="M36.853 22.4c0.107-0.747 0.213-1.547 0.48-2.293-1.678 1.77-2.738 4.14-2.826 6.756l-0 0.017 2.56-1.227c-0.213-1.067-0.32-2.133-0.213-3.2zM37.387 22.4c-0.029 0.287-0.045 0.62-0.045 0.957 0 0.718 0.075 1.419 0.217 2.096l-0.012-0.066c3.627-1.973 7.68-5.067 7.52-8.747v-0.32c-2.56 0.267-5.013 1.28-6.88 2.933-0.427 1.067-0.693 2.133-0.8 3.2z">
            </path>
        </symbol>
        <symbol id="icon-Logo-5" viewBox="0 0 57 32">
            <path
                d="M28.48 14.613c-0.202-0.265-0.323-0.6-0.323-0.964 0-0.036 0.001-0.072 0.004-0.107l-0 0.005v-1.547c0-0.427 0.107-0.8 0.32-1.067 0.213-0.213 0.587-0.373 1.067-0.373 0.533 0 0.907 0.107 1.067 0.32 0.267 0.267 0.373 0.587 0.32 0.907v0.373h-0.853v-0.693c0-0.107-0.107-0.16-0.16-0.213-0.088-0.067-0.199-0.107-0.32-0.107v0c-0.121 0-0.232 0.040-0.321 0.108l0.001-0.001c-0.107 0-0.16 0.107-0.16 0.213v2.24l0.053 0.533 0.213 0.107 0.213 0.053c0.107 0 0.213 0 0.32-0.107l0.107-0.213v-0.747h0.907v0.373c0 0.32-0.053 0.64-0.267 0.96-0.213 0.213-0.533 0.32-1.067 0.32s-0.907-0.107-1.067-0.373zM32.16 14.613c-0.267-0.213-0.373-0.533-0.373-1.067v-1.6c0-0.427 0.107-0.8 0.373-1.067 0.213-0.16 0.533-0.32 1.067-0.32s0.907 0.16 1.12 0.373c0.213 0.213 0.32 0.533 0.32 1.067v1.6c0 0.427-0.107 0.8-0.32 1.067-0.213 0.213-0.587 0.32-1.067 0.32-0.533 0-0.907-0.107-1.12-0.373zM33.653 14.24l0.107-0.48v-1.973c0-0.16 0-0.32-0.107-0.48l-0.16-0.107c-0.040-0.011-0.086-0.017-0.133-0.017s-0.093 0.006-0.137 0.018l0.004-0.001c-0.032-0.007-0.069-0.011-0.107-0.011s-0.075 0.004-0.11 0.011l0.003-0.001-0.16 0.107c-0.107 0.16-0.16 0.32-0.107 0.48v1.973c0 0.16 0 0.32 0.107 0.533l0.16 0.107c0.071 0.030 0.154 0.047 0.24 0.047s0.169-0.017 0.244-0.048l-0.004 0.002 0.16-0.16zM35.733 10.667h0.96l0.693 2.933 0.747-2.987h0.907l0.053 4.32h-0.64l-0.107-2.987-0.693 2.987h-0.533l-0.693-2.987-0.16 2.987h-0.693l0.107-4.267zM40.16 10.667h1.493c0.853 0 1.28 0.373 1.28 1.173s-0.48 1.173-1.333 1.173h-0.533v1.92h-0.907v-4.267zM41.44 12.48h0.267l0.213-0.16 0.16-0.48-0.053-0.373-0.053-0.107-0.16-0.107c-0.107-0.053-0.267-0.107-0.373-0.053h-0.373v1.28h0.373zM44.267 10.667h0.907l1.067 4.267h-0.907l-0.16-1.013h-0.907l-0.213 1.013h-0.853l1.067-4.267zM45.067 13.44l-0.373-1.813-0.32 1.813h0.693zM46.987 10.667h0.64l1.227 2.4v-2.4h0.747v4.267h-0.587l-1.227-2.56v2.56h-0.853v-4.267zM51.36 13.333l-1.013-2.667h0.853l0.64 1.653 0.533-1.707h0.853l-1.013 2.667v1.653h-0.853v-1.6zM29.867 16.8v0.267h-0.693v1.707h-0.373v-1.707h-0.747v-0.267h1.813zM32.213 18.773h-0.373l-0.213-0.533h-1.013l-0.213 0.533h-0.32l0.907-1.973h0.32l0.907 1.973zM30.72 18.133h0.853l-0.373-0.8-0.053-0.213v0.107l-0.053 0.107-0.373 0.8zM33.76 18.613h0.16c0.115-0.001 0.225-0.021 0.328-0.056l-0.008 0.002 0.107-0.053v-0.48h-0.427v-0.16h0.693v0.747c-0.167 0.11-0.366 0.186-0.58 0.213l-0.007 0.001h-0.267c-0.16 0-0.32 0-0.48-0.107-0.142-0.031-0.267-0.087-0.377-0.162l0.004 0.002-0.213-0.32-0.107-0.427c0-0.16 0-0.267 0.107-0.427 0-0.107 0.107-0.213 0.213-0.32 0.107-0.053 0.213-0.16 0.373-0.16 0.173-0.073 0.374-0.115 0.585-0.115 0.057 0 0.113 0.003 0.168 0.009l-0.007-0.001c0.142 0.035 0.266 0.090 0.378 0.163l-0.005-0.003 0.16 0.107-0.053 0.107h-0.213l-0.16-0.107c-0.109-0.054-0.235-0.092-0.368-0.106l-0.005-0c-0.138 0.014-0.265 0.051-0.379 0.109l0.006-0.003-0.267 0.107-0.16 0.267v0.693c0 0.107 0.107 0.213 0.213 0.267 0.142 0.133 0.334 0.214 0.545 0.214 0.015 0 0.029-0 0.044-0.001l-0.002 0zM36.64 18.56h1.013v0.213h-1.28v-1.973h0.267v1.76zM38.667 18.773h-0.267v-1.973h0.32v1.973zM39.84 16.8v0.053l1.387 1.493v-1.547h0.267v1.973h-0.267l-1.333-1.493v1.547h-0.267v-1.973h0.16zM43.733 16.8v0.213h-1.067v0.693h0.853v0.213h-0.853v0.64h1.067v0.213h-1.387v-1.973h1.387zM11.307 4.64l13.76 3.36v11.733l-13.76-3.36v-11.733zM10.4 3.573v13.493l15.52 3.733v-13.333l-15.467-3.84z">
            </path>
            <path d="M18.72 27.040l-15.52-3.787v-13.44l15.52 3.84v13.333z"></path>
            <path
                d="M10.667 4.48l13.547 3.307-5.76 5.013-13.547-3.36 5.76-4.96zM10.4 3.627l-7.2 6.187 15.52 3.84 7.2-6.24-15.467-3.787zM19.573 26.293l6.4-5.493-6.4-1.547v7.040z">
            </path>
        </symbol>
        <symbol id="icon-Logo" viewBox="0 0 57 32">
            <path
                d="M26.72 3.2h-0.587c-0.103-0.003-0.225-0.005-0.347-0.005s-0.243 0.002-0.364 0.005l0.018-0c-1.973 0-3.893 0.533-5.653 1.333l-0.267 0.107v11.893l0.533-0.213c1.743-0.592 3.752-0.959 5.84-1.013l0.027-0.001v1.6h-0.587c-2.696 0.137-5.192 0.871-7.397 2.072l0.091-0.045v-15.147c2.29-1.369 5.049-2.181 7.998-2.187h0.268c1.008 0.045 1.959 0.179 2.879 0.394l-0.105-0.021v1.493c-0.64-0.16-1.28-0.213-1.92-0.267h-0.48zM29.387 4.747h1.067c2.956-0.008 5.73-0.778 8.138-2.124l-0.085 0.044v14.933c-2.273 1.328-5.003 2.113-7.918 2.113-1.086 0-2.146-0.109-3.171-0.316l0.102 0.017v-14.933c0.556 0.129 1.214 0.224 1.886 0.265l0.034 0.002zM36.96 4.853l-0.533 0.16-1.493 0.48c-1.346 0.355-2.892 0.558-4.485 0.558-0.336 0-0.67-0.009-1.001-0.027l0.046 0.002h-0.427v12.107h0.32l1.067 0.107c2.313-0.004 4.496-0.556 6.429-1.531l-0.082 0.038 0.213-0.107v-11.787z">
            </path>
            <path
                d="M19.040 24.107c-0.14-0.13-0.327-0.21-0.533-0.213h-0.374c-0.314 0.113-0.535 0.408-0.535 0.755 0 0.016 0 0.032 0.001 0.047l-0-0.002v2.027c0 0.16 0 0.32 0.107 0.427 0 0.107 0.107 0.213 0.16 0.267l0.32 0.16h0.587c0.315-0.13 0.533-0.435 0.533-0.791 0-0.003-0-0.006-0-0.009v0-0.213h-0.533v0.32l-0.213 0.213h-0.107c-0.015 0.003-0.032 0.005-0.050 0.005-0.089 0-0.168-0.044-0.216-0.111l-0.001-0.001-0.053-0.32v-1.92l0.053-0.267c0.042-0.095 0.136-0.161 0.245-0.161 0.008 0 0.015 0 0.023 0.001l-0.001-0c0.096 0.012 0.176 0.074 0.213 0.158l0.001 0.002c0.107 0.053 0.107 0.16 0.107 0.267v0.16h0.533v-0.213c-0.006-0.249-0.107-0.474-0.267-0.64l0 0zM22.187 24.107c-0.163-0.131-0.372-0.21-0.6-0.21-0.11 0-0.215 0.018-0.314 0.052l0.007-0.002c-0.107 0-0.213 0.053-0.267 0.16l-0.213 0.267-0.053 0.373v1.973l0.053 0.373c0 0.107 0.107 0.213 0.213 0.267 0.053 0.107 0.16 0.16 0.267 0.16 0.095 0.037 0.205 0.058 0.32 0.058s0.225-0.021 0.326-0.060l-0.006 0.002c0.107 0 0.213-0.053 0.267-0.16 0.165-0.156 0.267-0.376 0.267-0.62 0-0.007-0-0.014-0-0.021l0 0.001v-1.973l-0.053-0.373c0-0.107-0.107-0.213-0.213-0.267zM21.973 26.72c0 0.002 0 0.003 0 0.005 0 0.102-0.041 0.194-0.107 0.261l0-0c-0.068 0.069-0.162 0.112-0.267 0.112s-0.199-0.043-0.267-0.112l-0-0c-0.066-0.067-0.107-0.16-0.107-0.261 0-0.002 0-0.004 0-0.006v0-1.973c-0-0.002-0-0.003-0-0.005 0-0.102 0.041-0.194 0.107-0.261l-0 0c0.068-0.069 0.162-0.112 0.267-0.112s0.199 0.043 0.267 0.112l0 0c0.066 0.067 0.107 0.16 0.107 0.261 0 0.002 0 0.004-0 0.006v-0 1.973zM26.347 27.573v-3.68h-0.533l-0.64 1.973-0.693-1.973h-0.533v3.68h0.533v-2.24l0.533 1.6h0.267l0.533-1.6v2.24h0.533zM29.333 24.16l-0.32-0.213h-1.173v3.627h0.533v-1.44h0.267c0.16 0 0.32 0 0.48-0.107l0.267-0.267 0.16-0.32c0.028-0.144 0.044-0.31 0.044-0.48s-0.016-0.336-0.047-0.496l0.003 0.016-0.213-0.32zM29.067 25.227l-0.053 0.267-0.16 0.107c-0.040 0.011-0.086 0.017-0.133 0.017s-0.093-0.006-0.137-0.018l0.004 0.001h-0.213v-1.227h0.267l0.213 0.053 0.16 0.16v0.693zM31.787 23.893h-0.427l-0.8 3.68h0.533l0.16-0.8h0.693l0.16 0.8h0.533l-0.853-3.68zM31.307 26.293l0.267-1.333 0.267 1.333h-0.533zM35.2 26.133l-0.853-2.24h-0.48v3.68h0.533v-2.187l0.8 2.187h0.533v-3.68h-0.533v2.24zM38.4 23.893l-0.427 1.44-0.48-1.44h-0.533l0.747 2.133v1.547h0.533v-1.6l0.693-2.080h-0.533zM17.6 28.587h0.267v0.747h0.16v-0.747h0.267v-0.107h-0.693v0.107zM19.733 28.48l-0.32 0.853h0.16l0.053-0.213h0.373l0.053 0.213h0.213l-0.373-0.853h-0.16zM19.733 29.013l0.053-0.373 0.16 0.32h-0.267zM21.867 29.013h0.16v0.107l-0.213 0.053c-0.005 0-0.012 0.001-0.018 0.001-0.055 0-0.104-0.021-0.142-0.054l0 0-0.107-0.213c0-0.213 0.107-0.32 0.267-0.32 0.016-0.006 0.034-0.009 0.054-0.009 0.088 0 0.16 0.072 0.16 0.16 0 0.003-0 0.006-0 0.010l0-0h0.16c0-0.213-0.16-0.32-0.373-0.32l-0.32 0.107c-0.071 0.076-0.115 0.178-0.115 0.291 0 0.029 0.003 0.058 0.008 0.085l-0-0.003c0 0.107 0 0.213 0.107 0.32 0.075 0.067 0.175 0.108 0.284 0.108 0.013 0 0.025-0.001 0.038-0.002l-0.002 0c0.16 0 0.267 0 0.373-0.16v-0.32h-0.373v0.16zM24 28.48h-0.213v0.853h0.587v-0.16h-0.373v-0.693zM25.76 28.48h-0.16v0.853h0.16v-0.853zM27.52 29.013l-0.32-0.533h-0.16v0.853h0.16v-0.533l0.32 0.533h0.16v-0.853h-0.16v0.533zM29.12 28.96h0.427v-0.16h-0.427v-0.213h0.48v-0.107h-0.64v0.853h0.64v-0.16h-0.48v-0.213zM33.067 28.8h-0.373v-0.32h-0.16v0.853h0.16v-0.373h0.32v0.373h0.16v-0.853h-0.107v0.32zM34.667 28.96h0.373v-0.16h-0.373v-0.213h0.48v-0.107h-0.64v0.853h0.64v-0.16h-0.48v-0.213zM36.8 28.96c0.16 0 0.213-0.107 0.213-0.267 0.001-0.005 0.001-0.012 0.001-0.018 0-0.055-0.021-0.104-0.054-0.142l0 0c-0.065-0.035-0.142-0.055-0.224-0.055-0.015 0-0.030 0.001-0.045 0.002l0.002-0h-0.373v0.853h0.213v-0.373h0.107l0.053 0.107 0.213 0.267h0.213l-0.107-0.16-0.213-0.213zM36.64 28.8h-0.107v-0.213h0.267c0.059 0 0.107 0.048 0.107 0.107s-0.048 0.107-0.107 0.107v0c-0.024 0.004-0.052 0.006-0.080 0.006s-0.056-0.002-0.083-0.006l0.003 0zM38.453 28.96h0.427v-0.16h-0.427v-0.213h0.48v-0.107h-0.64v0.853h0.64v-0.16h-0.48v-0.213z">
            </path>
        </symbol>
        <symbol id="icon-facebook" viewBox="0 0 32 32">
            <path
                d="M21.28 5.28h3.040v-5.12l-4.32-0.16c-4.16 0-7.040 2.72-7.040 7.52v4.48h-4.96v5.76h4.8v14.24h5.6v-14.4h4.48l0.8-5.6h-5.28v-3.84c0-1.6 0.48-2.88 2.72-2.88z">
            </path>
        </symbol>
        <symbol id="icon-linkedin" viewBox="0 0 32 32">
            <path
                d="M32 32v-11.68c0-5.76-1.28-10.24-8-10.24-3.2 0-5.28 1.76-6.24 3.52v-3.040h-6.56v21.44h6.56v-10.56c0-2.88 0.48-5.44 4-5.44 3.36 0 3.52 3.2 3.52 5.6v10.4h6.72zM0.48 10.56h6.72v21.44h-6.72v-21.44zM3.84 0c-2.080 0-3.84 1.6-3.84 3.84 0 2.080 1.6 3.84 3.84 3.84 2.121 0 3.84-1.719 3.84-3.84s-1.719-3.84-3.84-3.84v0z">
            </path>
        </symbol>
        <symbol id="icon-instagram" viewBox="0 0 32 32">
            <path
                d="M32 9.44c0-1.6-0.32-2.88-0.8-3.84-0.32-1.12-0.96-2.080-1.76-2.88-0.79-0.823-1.751-1.475-2.826-1.901l-0.054-0.019c-3.142-0.321-6.79-0.504-10.48-0.504s-7.338 0.183-10.934 0.541l0.454-0.037c-1.12 0.48-2.080 1.12-2.88 1.92-0.746 0.756-1.342 1.661-1.741 2.666l-0.019 0.054c-0.48 1.12-0.96 2.24-0.96 4.16-0.035 1.038-0.056 2.258-0.056 3.482 0 4.808 0.311 9.543 0.914 14.186l-0.058-0.548c0.418 1.059 1.014 1.964 1.761 2.721l-0.001-0.001c0.79 0.823 1.751 1.475 2.826 1.901l0.054 0.019c0.96 0.32 2.080 0.64 3.84 0.64 1.251 0.048 2.721 0.075 4.196 0.075 4.553 0 9.045-0.26 13.463-0.765l-0.54 0.050c2.227-0.846 3.954-2.573 4.781-4.744l0.019-0.056 0.64-3.84c0.173-2.39 0.272-5.179 0.272-7.99 0-1.804-0.041-3.599-0.121-5.384l0.009 0.254zM29.12 22.4c0 1.6-0.32 2.4-0.64 3.040-0.48 1.44-1.6 2.56-3.040 3.040-0.48 0.16-1.28 0.48-2.88 0.48-1.382 0.061-3.002 0.095-4.631 0.095-4.004 0-7.959-0.209-11.856-0.616l0.487 0.041c-0.688-0.254-1.276-0.635-1.76-1.12l-0-0c-0.48-0.64-0.96-1.28-1.12-1.92-0.32-0.48-0.64-1.44-0.64-3.040-0.032-1.008-0.051-2.194-0.051-3.384 0-4.389 0.251-8.718 0.739-12.976l-0.049 0.52c0.16-0.64 0.64-1.28 1.12-1.76 0.48-0.64 1.12-0.96 1.76-1.28 0.64-0.16 1.6-0.48 3.2-0.48 1.312-0.055 2.851-0.086 4.397-0.086 3.974 0 7.9 0.205 11.767 0.606l-0.484-0.041c0.8 0.32 1.44 0.64 1.92 1.28 0.48 0.48 0.96 1.12 1.12 1.76 0.32 0.64 0.48 1.44 0.64 3.040 0.116 1.913 0.182 4.149 0.182 6.4s-0.066 4.487-0.196 6.706l0.014-0.306z">
            </path>
            <path
                d="M16 7.84c-0.342-0.051-0.738-0.080-1.14-0.080-4.507 0-8.16 3.653-8.16 8.16s3.653 8.16 8.16 8.16c0.402 0 0.797-0.029 1.184-0.085l-0.044 0.005c3.763-0.776 6.552-4.062 6.552-8s-2.789-7.224-6.499-7.991l-0.053-0.009zM16 21.28c-2.916 0-5.28-2.364-5.28-5.28s2.364-5.28 5.28-5.28v0c2.916 0 5.28 2.364 5.28 5.28s-2.364 5.28-5.28 5.28v0zM26.56 7.52c0 1.060-0.86 1.92-1.92 1.92s-1.92-0.86-1.92-1.92v0c0-1.060 0.86-1.92 1.92-1.92s1.92 0.86 1.92 1.92v0z">
            </path>
        </symbol>
        <symbol id="icon-twitter" viewBox="0 0 32 32">
            <path
                d="M32 6.080c-1.12 0.48-2.4 0.8-3.84 0.96 1.347-0.785 2.365-2.010 2.867-3.475l0.013-0.045c-1.28 0.8-2.56 1.28-4.16 1.6-1.201-1.288-2.908-2.091-4.803-2.091-3.623 0-6.56 2.937-6.56 6.56 0 0.515 0.059 1.015 0.171 1.496l-0.009-0.044c-5.44-0.32-10.24-2.88-13.44-6.88-0.562 0.947-0.894 2.088-0.894 3.307 0 2.289 1.173 4.305 2.95 5.478l0.025 0.015c-1.117-0.011-2.163-0.306-3.072-0.817l0.032 0.017c0 3.2 2.24 5.92 5.28 6.4-0.553 0.173-1.188 0.272-1.847 0.272-0.422 0-0.835-0.041-1.234-0.119l0.040 0.007c0.96 2.72 3.2 4.64 6.24 4.64-2.212 1.759-5.047 2.822-8.129 2.822-0.575 0-1.141-0.037-1.697-0.109l0.066 0.007c2.88 1.92 6.4 2.72 10.080 2.72 0.003 0 0.007 0 0.011 0 10.25 0 18.56-8.31 18.56-18.56 0-0.225-0.004-0.449-0.012-0.672l0.001 0.032c1.44-0.96 2.4-2.080 3.36-3.36z">
            </path>
        </symbol>
        <symbol id="icon-close" viewBox="0 0 32 32">
            <path
                d="M26.667 7.303l-1.97-1.97-7.808 7.808-7.808-7.808-1.97 1.97 7.808 7.808-7.808 7.808 1.97 1.97 7.808-7.808 7.808 7.808 1.97-1.97-7.808-7.808 7.808-7.808z">
            </path>
        </symbol>
        <symbol id="icon-checkbox" viewBox="0 0 34 32">
            <path
                d="M30.341 3.556v24.889h-26.548v-24.889h26.548zM30.341 0h-26.548c-2.086 0-3.793 1.6-3.793 3.556v24.889c0 1.956 1.707 3.556 3.793 3.556h26.548c2.086 0 3.793-1.6 3.793-3.556v-24.889c0-1.956-1.707-3.556-3.793-3.556z">
            </path>
        </symbol>
        <symbol id="icon-person" viewBox="0 0 32 32">
            <path
                d="M16 16c2.947 0 5.333-2.387 5.333-5.333s-2.387-5.333-5.333-5.333c-2.947 0-5.333 2.387-5.333 5.333s2.387 5.333 5.333 5.333zM16 18.667c-3.56 0-10.667 1.787-10.667 5.333v1.333c0 0.733 0.6 1.333 1.333 1.333h18.667c0.733 0 1.333-0.6 1.333-1.333v-1.333c0-3.547-7.107-5.333-10.667-5.333z">
            </path>
        </symbol>
        <symbol id="icon-email" viewBox="0 0 32 32">
            <path
                d="M26.667 5.333h-21.333c-1.467 0-2.653 1.2-2.653 2.667l-0.013 16c0 1.467 1.2 2.667 2.667 2.667h21.333c1.467 0 2.667-1.2 2.667-2.667v-16c0-1.467-1.2-2.667-2.667-2.667zM26.133 11l-9.427 5.893c-0.427 0.267-0.987 0.267-1.413 0l-9.427-5.893c-0.333-0.213-0.533-0.573-0.533-0.96 0-0.893 0.973-1.427 1.733-0.96l8.933 5.587 8.933-5.587c0.76-0.467 1.733 0.067 1.733 0.96 0 0.387-0.2 0.747-0.533 0.96z">
            </path>
        </symbol>
        <symbol id="icon-telephone" viewBox="0 0 32 32">
            <path
                d="M27.419 20.852l-4.201-0.48c-1.009-0.116-2.002 0.232-2.713 0.943l-3.044 3.044c-4.681-2.382-8.519-6.203-10.901-10.901l3.060-3.060c0.711-0.711 1.059-1.704 0.943-2.713l-0.48-4.168c-0.198-1.671-1.604-2.928-3.292-2.928h-2.862c-1.869 0-3.424 1.555-3.308 3.424 0.877 14.126 12.174 25.407 26.284 26.284 1.869 0.116 3.424-1.439 3.424-3.308v-2.861c0.016-1.671-1.241-3.077-2.911-3.275z">
            </path>
        </symbol>
        <symbol id="icon-icon-send" viewBox="0 0 32 32">
            <path fill="#fff" style="fill: var(--color1, #fff)"
                d="M32 0l-32 18 10.227 3.788 15.773-14.788-11.998 16.186 0.010 0.004-0.012-0.004v8.814l5.735-6.691 7.265 2.691 5-28z">
            </path>
        </symbol>
        <symbol id="icon-icon-check" viewBox="0 0 34 32">
            <path fill="#2196f3" style="fill: var(--color1, #2196f3)"
                d="M4.267 0h25.6c2.356 0 4.267 1.91 4.267 4.267v23.467c0 2.356-1.91 4.267-4.267 4.267h-25.6c-2.356 0-4.267-1.91-4.267-4.267v-23.467c0-2.356 1.91-4.267 4.267-4.267z">
            </path>
            <path fill="#fff" style="fill: var(--color2, #fff); stroke: var(--color2, #fff)" stroke="#fff"
                stroke-linejoin="miter" stroke-linecap="butt" stroke-miterlimit="4" stroke-width="0.4267"
                d="M8.442 16.537l-0.147-0.14-2.205 2.088 7.767 7.41 16.318-15.567-2.19-2.089-14.128 13.465-5.416-5.167z">
            </path>
        </symbol>
        <symbol id="icon-check" viewBox="0 0 42 32">
            <path fill="#fff" style="fill: var(--color1, #fff); stroke: var(--color1, #fff)" stroke="#fff"
                stroke-linejoin="miter" stroke-linecap="butt" stroke-miterlimit="4" stroke-width="0.64"
                d="M6.263 15.205l-0.22-0.21-3.307 3.132 11.651 11.114 24.477-23.351-3.285-3.134-21.192 20.197-8.124-7.75z">
            </path>
        </symbol>
        <symbol id="icon-mobile-menu" viewBox="0 0 32 32">
            <path
                d="M6.4 11.733v-2.133h19.2v2.133h-19.2zM6.4 17.067h19.2v-2.133h-19.2v2.133zM6.4 22.4h19.2v-2.133h-19.2v2.133z">
            </path>
        </symbol>
        <symbol id="icon-close-mobile-menu" viewBox="0 0 32 32">
            <path
                d="M23.733 10.304l-1.504-1.504-5.963 5.963-5.963-5.963-1.504 1.504 5.963 5.963-5.963 5.963 1.504 1.504 5.963-5.963 5.963 5.963 1.504-1.504-5.963-5.963 5.963-5.963z">
            </path>
        </symbol>
        <symbol id="icon-line" viewBox="0 0 1 32">
            <path fill="#afb1b8" style="fill: var(--color1, #afb1b8)"
                d="M19.040 24.107c-0.14-0.13-0.327-0.21-0.533-0.213h-0.374c-0.314 0.113-0.535 0.408-0.535 0.755 0 0.016 0 0.032 0.001 0.047l-0-0.002v2.027c0 0.16 0 0.32 0.107 0.427 0 0.107 0.107 0.213 0.16 0.267l0.32 0.16h0.587c0.315-0.13 0.533-0.435 0.533-0.791 0-0.003-0-0.006-0-0.009v0-0.213h-0.533v0.32l-0.213 0.213h-0.107c-0.015 0.003-0.032 0.005-0.050 0.005-0.089 0-0.168-0.044-0.216-0.111l-0.001-0.001-0.053-0.32v-1.92l0.053-0.267c0.042-0.095 0.136-0.161 0.245-0.161 0.008 0 0.015 0 0.023 0.001l-0.001-0c0.096 0.012 0.176 0.074 0.213 0.158l0.001 0.002c0.107 0.053 0.107 0.16 0.107 0.267v0.16h0.533v-0.213c-0.006-0.249-0.107-0.474-0.267-0.64l0 0zM22.187 24.107c-0.163-0.131-0.372-0.21-0.6-0.21-0.11 0-0.215 0.018-0.314 0.052l0.007-0.002c-0.107 0-0.213 0.053-0.267 0.16l-0.213 0.267-0.053 0.373v1.973l0.053 0.373c0 0.107 0.107 0.213 0.213 0.267 0.053 0.107 0.16 0.16 0.267 0.16 0.095 0.037 0.205 0.058 0.32 0.058s0.225-0.021 0.326-0.060l-0.006 0.002c0.107 0 0.213-0.053 0.267-0.16 0.165-0.156 0.267-0.376 0.267-0.62 0-0.007-0-0.014-0-0.021l0 0.001v-1.973l-0.053-0.373c0-0.107-0.107-0.213-0.213-0.267zM21.973 26.72c0 0.002 0 0.003 0 0.005 0 0.102-0.041 0.194-0.107 0.261l0-0c-0.068 0.069-0.162 0.112-0.267 0.112s-0.199-0.043-0.267-0.112l-0-0c-0.066-0.067-0.107-0.16-0.107-0.261 0-0.002 0-0.004 0-0.006v0-1.973c-0-0.002-0-0.003-0-0.005 0-0.102 0.041-0.194 0.107-0.261l-0 0c0.068-0.069 0.162-0.112 0.267-0.112s0.199 0.043 0.267 0.112l0 0c0.066 0.067 0.107 0.16 0.107 0.261 0 0.002 0 0.004-0 0.006v-0 1.973zM26.347 27.573v-3.68h-0.533l-0.64 1.973-0.693-1.973h-0.533v3.68h0.533v-2.24l0.533 1.6h0.267l0.533-1.6v2.24h0.533zM29.333 24.16l-0.32-0.213h-1.173v3.627h0.533v-1.44h0.267c0.16 0 0.32 0 0.48-0.107l0.267-0.267 0.16-0.32c0.028-0.144 0.044-0.31 0.044-0.48s-0.016-0.336-0.047-0.496l0.003 0.016-0.213-0.32zM29.067 25.227l-0.053 0.267-0.16 0.107c-0.040 0.011-0.086 0.017-0.133 0.017s-0.093-0.006-0.137-0.018l0.004 0.001h-0.213v-1.227h0.267l0.213 0.053 0.16 0.16v0.693zM31.787 23.893h-0.427l-0.8 3.68h0.533l0.16-0.8h0.693l0.16 0.8h0.533l-0.853-3.68zM31.307 26.293l0.267-1.333 0.267 1.333h-0.533zM35.2 26.133l-0.853-2.24h-0.48v3.68h0.533v-2.187l0.8 2.187h0.533v-3.68h-0.533v2.24zM38.4 23.893l-0.427 1.44-0.48-1.44h-0.533l0.747 2.133v1.547h0.533v-1.6l0.693-2.080h-0.533zM17.6 28.587h0.267v0.747h0.16v-0.747h0.267v-0.107h-0.693v0.107zM19.733 28.48l-0.32 0.853h0.16l0.053-0.213h0.373l0.053 0.213h0.213l-0.373-0.853h-0.16zM19.733 29.013l0.053-0.373 0.16 0.32h-0.267zM21.867 29.013h0.16v0.107l-0.213 0.053c-0.005 0-0.012 0.001-0.018 0.001-0.055 0-0.104-0.021-0.142-0.054l0 0-0.107-0.213c0-0.213 0.107-0.32 0.267-0.32 0.016-0.006 0.034-0.009 0.054-0.009 0.088 0 0.16 0.072 0.16 0.16 0 0.003-0 0.006-0 0.010l0-0h0.16c0-0.213-0.16-0.32-0.373-0.32l-0.32 0.107c-0.071 0.076-0.115 0.178-0.115 0.291 0 0.029 0.003 0.058 0.008 0.085l-0-0.003c0 0.107 0 0.213 0.107 0.32 0.075 0.067 0.175 0.108 0.284 0.108 0.013 0 0.025-0.001 0.038-0.002l-0.002 0c0.16 0 0.267 0 0.373-0.16v-0.32h-0.373v0.16zM24 28.48h-0.213v0.853h0.587v-0.16h-0.373v-0.693zM25.76 28.48h-0.16v0.853h0.16v-0.853zM27.52 29.013l-0.32-0.533h-0.16v0.853h0.16v-0.533l0.32 0.533h0.16v-0.853h-0.16v0.533zM29.12 28.96h0.427v-0.16h-0.427v-0.213h0.48v-0.107h-0.64v0.853h0.64v-0.16h-0.48v-0.213zM33.067 28.8h-0.373v-0.32h-0.16v0.853h0.16v-0.373h0.32v0.373h0.16v-0.853h-0.107v0.32zM34.667 28.96h0.373v-0.16h-0.373v-0.213h0.48v-0.107h-0.64v0.853h0.64v-0.16h-0.48v-0.213zM36.8 28.96c0.16 0 0.213-0.107 0.213-0.267 0.001-0.005 0.001-0.012 0.001-0.018 0-0.055-0.021-0.104-0.054-0.142l0 0c-0.065-0.035-0.142-0.055-0.224-0.055-0.015 0-0.030 0.001-0.045 0.002l0.002-0h-0.373v0.853h0.213v-0.373h0.107l0.053 0.107 0.213 0.267h0.213l-0.107-0.16-0.213-0.213zM36.64 28.8h-0.107v-0.213h0.267c0.059 0 0.107 0.048 0.107 0.107s-0.048 0.107-0.107 0.107v0c-0.024 0.004-0.052 0.006-0.080 0.006s-0.056-0.002-0.083-0.006l0.003 0zM38.453 28.96h0.427v-0.16h-0.427v-0.213h0.48v-0.107h-0.64v0.853h0.64v-0.16h-0.48v-0.213z">
            </path>
        </symbol>
    </defs>
</svg>